<svg xmlns="http://www.w3.org/2000/svg" viewBox="312.668 -538.296 1024 1024">
  <g transform="matrix(1, 0, 0, 1, 455.1685, -538.296)">
    <path fill="#d63390" d="M 94.29 305.31 A 0.42 0.42 0.0 0 0 94.55 306.01 C 97.71 306.44 100.73 305.89 104.15 305.91 Q 129.96 306.06 232.75 305.99 Q 232.76 305.99 241.99 305.76 Q 244.48 305.69 244.46 308.32 Q 244.37 319.42 244.57 361.50 Q 244.59 364.59 241.50 364.41 Q 233.46 363.97 228.50 364.05 C 199.63 364.55 163.66 364.14 133.83 364.31 C 114.30 364.42 91.81 364.07 64.73 364.22 Q 27.07 364.43 6.56 364.24 Q 5.00 364.23 2.97 364.04 A 1.42 1.42 0.0 0 1 1.68 362.63 Q 1.67 338.08 1.70 311.01 Q 1.70 307.66 4.40 304.65 C 27.54 278.91 56.92 245.57 82.50 217.40 Q 131.63 163.28 145.01 148.01 Q 145.78 147.12 146.07 146.31 A 0.41 0.41 0.0 0 0 145.68 145.77 L 11.36 145.77 A 1.30 1.29 0.0 0 1 10.06 144.48 L 10.06 90.05 A 1.13 1.13 0.0 0 1 11.12 88.92 Q 18.99 88.43 26.75 88.43 Q 120.62 88.34 218.25 88.47 Q 224.45 88.48 237.03 88.27 Q 239.40 88.23 239.19 90.62 Q 239.07 92.05 239.07 92.40 Q 239.07 114.59 239.12 141.10 Q 239.12 143.07 237.44 144.94 Q 112.57 284.99 94.29 305.31 Z"/>
    <path fill="#d63390" d="M 398.30 512.21 L 399.57 512.55 A 7.59 7.26 52.3 0 0 401.23 512.80 C 417.91 513.38 433.38 514.88 449.14 518.34 Q 496.63 528.76 538.96 553.82 Q 580.07 578.16 613.61 612.39 Q 665.19 665.05 696.21 731.53 Q 705.38 751.19 714.08 776.13 C 728.88 818.57 736.42 863.74 738.53 910.50 Q 738.78 915.96 738.42 920.08 A 1.14 1.12 -16.1 0 1 737.95 920.91 Q 737.27 921.39 735.01 921.39 Q 520.58 921.27 283.50 921.35 Q 277.92 921.35 274.60 921.18 A 1.35 1.35 0.0 0 1 273.32 919.83 L 273.32 89.05 A 0.67 0.67 0.0 0 1 273.99 88.38 L 736.34 88.38 A 1.71 1.71 0.0 0 1 738.05 89.98 Q 738.98 104.69 738.46 119.50 Q 736.03 188.62 713.78 254.33 Q 711.51 261.01 705.87 275.13 Q 685.44 326.24 653.28 369.53 Q 627.57 404.13 595.00 432.25 C 570.28 453.59 542.47 471.18 513.18 484.92 Q 498.63 491.75 475.91 499.06 C 468.12 501.56 462.60 502.67 452.44 505.15 Q 445.51 506.85 437.69 508.16 C 426.34 510.06 416.68 510.23 406.00 510.82 Q 400.54 511.12 398.29 511.77 A 0.23 0.23 0.0 0 0 398.30 512.21 Z"/>
    <path fill="#ba337c" d="M 162.36 456.38 A 1.94 1.93 87.9 0 1 160.43 454.58 Q 160.03 448.98 157.74 443.28 C 154.62 435.51 146.12 428.90 138.49 426.68 Q 121.39 421.71 102.96 425.22 C 94.88 426.76 87.28 430.65 83.25 438.00 C 77.89 447.74 81.93 457.66 91.21 462.79 Q 96.22 465.56 102.21 467.52 Q 112.62 470.94 118.99 472.48 Q 140.70 477.71 161.72 483.30 Q 177.59 487.52 193.53 494.71 C 220.49 506.86 237.22 525.58 239.71 555.94 C 241.24 574.62 237.01 595.66 225.88 610.83 C 213.26 628.05 194.19 639.66 173.93 645.17 Q 160.40 648.85 151.92 649.80 Q 141.14 651.01 132.00 651.66 C 121.17 652.42 111.00 651.69 98.57 650.51 C 65.89 647.43 31.10 634.47 13.40 604.90 Q 0.44 583.24 0.58 558.22 A 1.24 1.23 -2.9 0 1 1.68 557.01 Q 5.30 556.64 7.50 556.63 Q 40.74 556.44 59.00 556.63 C 61.15 556.65 68.23 555.46 72.08 556.98 A 1.05 1.03 -79.2 0 1 72.74 557.97 C 72.47 576.85 84.32 590.89 102.52 595.44 Q 123.84 600.77 144.84 595.36 C 152.99 593.25 160.04 588.93 163.96 582.21 C 167.98 575.32 168.48 566.72 164.92 559.47 C 161.95 553.43 153.34 548.67 147.43 546.57 Q 136.06 542.53 121.47 538.81 Q 103.16 534.15 83.75 529.01 Q 76.06 526.97 58.35 519.93 C 39.10 512.27 20.49 497.62 13.97 476.80 Q 7.50 456.16 11.98 436.40 Q 18.94 405.65 45.98 389.42 Q 60.46 380.73 77.92 376.61 Q 89.63 373.84 96.67 373.17 Q 117.93 371.15 141.25 373.10 Q 159.13 374.60 177.06 381.17 C 204.17 391.11 224.06 411.67 229.22 440.51 Q 230.35 446.85 230.63 454.92 A 1.42 1.41 -1.0 0 1 229.21 456.38 L 162.36 456.38 Z"/>
    <path fill="#d63390" d="M 214.26 778.70 A 0.60 0.59 -43.5 0 0 214.23 779.77 C 217.68 781.54 220.96 782.60 224.24 784.50 Q 259.57 805.01 257.98 847.49 C 256.72 881.40 238.10 903.94 207.16 914.37 C 189.52 920.31 170.67 921.57 152.31 921.50 Q 92.32 921.26 24.75 921.47 Q 22.29 921.48 19.71 921.21 A 1.58 1.58 0.0 0 1 18.30 919.64 Q 18.02 794.84 18.31 662.49 Q 18.32 659.53 21.25 659.56 Q 59.60 659.99 105.58 659.53 Q 126.66 659.32 130.92 659.40 Q 139.08 659.55 156.26 659.64 Q 164.60 659.68 180.05 661.47 C 206.28 664.51 232.56 676.35 241.97 703.17 Q 249.06 723.41 243.62 743.98 Q 237.19 768.29 214.26 778.70 Z M 90.45 714.25 L 90.37 759.63 A 2.17 2.17 0.0 0 0 92.54 761.80 L 149.19 761.90 A 25.18 22.49 0.1 0 0 174.41 739.45 L 174.41 734.71 A 25.18 22.49 0.1 0 0 149.27 712.18 L 92.62 712.08 A 2.17 2.17 0.0 0 0 90.45 714.25 Z M 90.42 810.57 L 90.32 865.01 A 1.92 1.92 0.0 0 0 92.24 866.93 L 155.84 867.04 A 29.22 26.21 0.1 0 0 185.10 840.88 L 185.12 835.02 A 29.22 26.21 0.1 0 0 155.94 808.76 L 92.34 808.65 A 1.92 1.92 0.0 0 0 90.42 810.57 Z"/>
  </g>
</svg>
